<svg xmlns="http://www.w3.org/2000/svg" width="177" height="18" fill="#151515" xmlns:v="https://vecta.io/nano"><path d="M3.872 10.761h6.533V7.239H3.872V3.522h7.985V0H0v17.609h3.872v-6.848zm9.311.244v6.603h3.63v-6.603c0-2.03 1.621-3.668 3.63-3.668V4.011h-.484c-4.017 0-6.775 3.13-6.775 6.995zm15.374-6.994c-4.017 0-7.259 3.13-7.259 6.995S24.541 18 28.557 18c3.194 0 5.904-1.981 6.872-4.745h-4.017a3.6 3.6 0 0 1-2.855 1.418c-1.573 0-2.879-1.003-3.412-2.397h10.55c.073-.416.121-.832.121-1.272 0-3.864-3.243-6.995-7.259-6.995zm-3.412 5.723c.532-1.394 1.839-2.397 3.412-2.397 1.549 0 2.88 1.003 3.412 2.397h-6.824zm18.6.098c-1.404-.171-3.001-.783-3.001-1.565 0-.88.75-1.174 1.549-1.174s1.549.293 1.549 1.418h3.63c0-2.837-2.371-4.5-5.178-4.5s-5.178 1.663-5.178 4.353c0 2.079 2.444 3.644 4.985 3.962 1.089.147 1.887.709 1.887 1.321 0 .856-.895 1.272-1.694 1.272S40.6 14.625 40.6 13.5h-3.63c0 2.837 2.517 4.5 5.324 4.5s5.324-1.663 5.324-4.5c0-2.226-1.96-3.448-3.872-3.668zm12.537-5.821c-1.21 0-2.299.44-3.146 1.174V0h-3.63v17.609h3.63v-6.628c0-2.005 1.137-3.644 3.146-3.644s3.146 1.639 3.146 3.668v6.603h3.63v-6.603c0-3.864-2.759-6.995-6.776-6.995zm15.736 0c-4.017 0-6.775 3.13-6.775 6.995v6.603h3.63v-6.603c0-2.03 1.137-3.668 3.146-3.668s3.146 1.639 3.146 3.668v6.603h3.63v-6.603c0-3.864-2.759-6.995-6.775-6.995zm15.617 0c-4.017 0-7.259 3.13-7.259 6.995S83.618 18 87.635 18c3.194 0 5.904-1.981 6.872-4.745H90.49a3.6 3.6 0 0 1-2.855 1.418c-1.573 0-2.88-1.003-3.412-2.397h10.55c.073-.416.121-.832.121-1.272 0-3.864-3.243-6.995-7.259-6.995zm-3.412 5.723c.532-1.394 1.839-2.397 3.412-2.397 1.549 0 2.88 1.003 3.412 2.397h-6.824zm18.599.098c-1.403-.171-3-.783-3-1.565 0-.88.75-1.174 1.549-1.174s1.548.293 1.548 1.418h3.63c0-2.837-2.371-4.5-5.178-4.5s-5.179 1.663-5.179 4.353c0 2.079 2.444 3.644 4.985 3.962 1.089.147 1.887.709 1.887 1.321 0 .856-.895 1.272-1.693 1.272s-1.694-.293-1.694-1.418h-3.63c0 2.837 2.517 4.5 5.324 4.5s5.323-1.663 5.323-4.5c0-2.226-1.96-3.448-3.872-3.668zm12.295-5.821c-4.017 0-7.259 3.13-7.259 6.995S111.1 18 115.117 18c3.194 0 5.905-1.981 6.873-4.745h-4.017a3.6 3.6 0 0 1-2.856 1.418c-1.573 0-2.879-1.003-3.412-2.397h10.551c.072-.416.121-.832.121-1.272 0-3.864-3.243-6.995-7.26-6.995zm-3.412 5.723c.533-1.394 1.839-2.397 3.412-2.397 1.549 0 2.88 1.003 3.412 2.397h-6.824zm18.891-2.397c1.403 0 2.589.783 3.218 1.957h3.823c-.798-3.033-3.654-5.283-7.041-5.283-4.017 0-7.26 3.13-7.26 6.995S126.579 18 130.596 18c3.363 0 6.17-2.201 6.993-5.185h-3.896c-.605 1.101-1.742 1.859-3.097 1.859-2.009 0-3.63-1.639-3.63-3.668s1.621-3.668 3.63-3.668zm22.333 3.668c0-3.864-3.218-6.995-7.211-6.995s-7.211 3.13-7.211 6.995S141.726 18 145.718 18s7.211-3.13 7.211-6.995zm-3.629 0c0 2.03-1.598 3.669-3.582 3.669s-3.581-1.639-3.581-3.668 1.597-3.668 3.581-3.668 3.582 1.639 3.582 3.668zm21.167-6.994a6.11 6.11 0 0 0-4.719 2.226 6.11 6.11 0 0 0-4.719-2.226c-4.017 0-6.533 3.13-6.533 6.995v6.603h3.63v-6.603c0-2.03.895-3.668 2.903-3.668s2.904 1.639 2.904 3.668v6.603h3.63v-6.603c0-2.03.895-3.668 2.904-3.668s2.903 1.639 2.903 3.668v6.603H177v-6.603c0-3.864-2.517-6.995-6.533-6.995z"/></svg>